# xmcd CD database file
#
# Track frame offsets:
#	150
#	13125
#	25540
#	40725
#	56551
#	74603
#	90911
#	101488
#	118261
#	129288
#	154511
#	169558
#	188552
#	201220
#	218645
#	242212
#	257778
#	275218
#
# Disc length: 3932 seconds
#
# Revision: 1
# Processed by: cddbd v1.5.1PL0 Copyright (c) Steve Scherf et al.
# Submitted via: CDex 1.51
#
DISCID=f40f5a12
DTITLE=Experience Hendrix - Jimi Hendrix
DYEAR=2005
DGENRE=Blues
TTITLE0=Jimi Hendrix - Purple Haze
TTITLE1=Jimi Hendrix - Fire
TTITLE2=Jimi Hendrix - The Wind Cries Mary 
TTITLE3=Jimi Hendrix - Hey Joe
TTITLE4=Jimi Hendrix - All Along The Watch Tower
TTITLE5=Jimi Hendrix - Stone Free
TTITLE6=Jimi Hendrix - Cross Town Traffic
TTITLE7=Jimi Hendrix - Minic Depression
TTITLE8=Jimi Hendrix - Little Wing
TTITLE9=Jimi Hendrix - If 6 was 9
TTITLE10=Jimi Hendrix - Foxy Lady
TTITLE11=Jimi Hendrix - Bold as Love
TTITLE12=Jimi Hendrix - Castle Made of Sand
TTITLE13=Jimi Hendrix - Red House
TTITLE14=Jimi Hendrix - Woodo Child (Slight Return)
TTITLE15=Jimi Hendrix - Freedom
TTITLE16=Jimi Hendrix - Night Bird Flying
TTITLE17=Jimi Hendrix - Angel
EXTD=YEAR: 2005
EXTT0=
EXTT1=
EXTT2=
EXTT3=
EXTT4=
EXTT5=
EXTT6=
EXTT7=
EXTT8=
EXTT9=
EXTT10=
EXTT11=
EXTT12=
EXTT13=
EXTT14=
EXTT15=
EXTT16=
EXTT17=
PLAYORDER=
